<?xml version="1.0" standalone="no"?>
<!DOCTYPE svg PUBLIC "-//W3C//DTD SVG 20010904//EN"
 "http://www.w3.org/TR/2001/REC-SVG-20010904/DTD/svg10.dtd">
<svg version="1.0" xmlns="http://www.w3.org/2000/svg"
 width="260.000000pt" height="260.000000pt" viewBox="0 0 260.000000 260.000000"
 preserveAspectRatio="xMidYMid meet">
<metadata>
Created by potrace 1.11, written by Peter Selinger 2001-2013
</metadata>
<g transform="translate(0.000000,260.000000) scale(0.100000,-0.100000)"
fill="#000000" stroke="none">
<path d="M145 2156 c-7 -12 -16 -68 -20 -126 -9 -157 -22 -348 -30 -440 -2
-25 -7 -88 -10 -140 -4 -52 -8 -116 -10 -142 -2 -26 -6 -89 -10 -140 -3 -51
-8 -111 -10 -133 -2 -22 -7 -87 -10 -145 -3 -57 -8 -106 -10 -109 -3 -2 0 -12
6 -22 8 -15 21 -19 62 -19 82 0 81 -2 92 175 9 144 14 222 20 285 3 30 7 98
11 150 3 52 7 115 9 140 2 25 7 90 10 145 4 55 11 107 16 115 11 20 19 -1 138
-351 199 -589 214 -634 224 -646 6 -8 35 -13 78 -13 65 0 70 2 82 27 6 14 84
240 172 502 108 319 165 476 174 476 15 0 16 -3 26 -155 4 -58 8 -121 10 -140
3 -39 13 -175 21 -290 3 -41 7 -95 9 -120 3 -25 7 -85 10 -135 11 -169 9 -165
92 -165 57 0 70 12 67 60 -1 14 -5 63 -9 110 -3 47 -8 105 -10 130 -2 25 -7
83 -10 130 -6 84 -10 138 -20 275 -3 39 -7 99 -10 135 -2 36 -7 94 -10 130 -7
100 -15 207 -20 295 -7 104 -13 146 -25 160 -6 7 -36 12 -71 12 -73 -1 -75 -3
-118 -132 -16 -49 -98 -290 -181 -535 -84 -245 -155 -456 -159 -470 -12 -41
-33 -29 -53 30 -11 30 -97 286 -193 568 -95 282 -178 519 -184 526 -7 9 -34
13 -72 13 -50 -1 -63 -4 -74 -21z"/>
<path d="M1548 2169 c-17 -9 -18 -54 -18 -707 0 -530 3 -701 12 -710 7 -7 36
-12 65 -12 40 0 54 4 61 18 5 9 9 125 9 258 0 132 3 246 7 252 11 18 682 17
692 0 5 -7 8 -123 9 -258 0 -135 4 -251 8 -257 5 -8 29 -13 57 -13 88 0 80
-75 80 716 0 684 -1 704 -19 714 -25 13 -100 10 -115 -5 -9 -9 -11 -102 -11
-351 1 -186 -2 -349 -7 -361 l-8 -23 -339 0 c-246 0 -342 3 -347 12 -4 6 -7
168 -7 360 0 288 -3 352 -14 364 -17 16 -90 18 -115 3z"/>
<path d="M62 583 l3 -108 39 3 c48 3 84 24 96 58 32 83 -17 154 -105 154 l-36
0 3 -107z m76 81 c72 -20 56 -164 -19 -164 -10 0 -22 -1 -26 -2 -8 -3 -15 138
-8 160 5 13 18 15 53 6z"/>
<path d="M1158 600 c-3 -84 5 -140 18 -128 10 11 8 212 -4 216 -7 2 -12 -27
-14 -88z"/>
<path d="M1636 675 c-3 -8 -3 -22 1 -31 5 -13 0 -14 -30 -9 -30 6 -40 3 -62
-19 -32 -32 -33 -88 -1 -123 20 -24 60 -31 71 -13 5 8 11 8 20 0 20 -16 22 -4
23 108 0 94 -7 124 -22 87z m-4 -102 c6 -52 -30 -98 -63 -78 -17 11 -29 55
-23 81 13 52 80 48 86 -3z"/>
<path d="M2004 643 c13 -103 24 -155 34 -165 8 -8 13 -8 16 3 45 126 65 171
69 159 51 -157 74 -199 83 -147 1 7 5 32 9 57 4 25 10 65 15 90 5 25 6 47 4
49 -11 11 -23 -18 -29 -68 -4 -30 -10 -63 -14 -74 -7 -19 -9 -18 -19 11 -6 18
-8 32 -5 32 3 0 1 6 -4 13 -6 6 -16 29 -22 50 -7 20 -18 37 -24 37 -7 0 -25
-37 -41 -83 -29 -81 -30 -82 -37 -47 -4 19 -10 56 -14 83 -3 26 -11 47 -17 47
-6 0 -8 -17 -4 -47z"/>
<path d="M2419 683 c-1 -5 -2 -50 -3 -101 -1 -64 3 -97 11 -104 9 -7 13 -7 13
3 0 10 3 10 12 1 37 -37 98 7 98 70 0 62 -63 111 -98 76 -13 -13 -16 -4 -12
40 1 19 -18 33 -21 15z m91 -83 c24 -24 26 -57 4 -88 -18 -26 -31 -28 -56 -5
-22 20 -23 70 -1 95 21 23 28 23 53 -2z"/>
<path d="M573 640 c-56 -22 -69 -114 -22 -152 26 -22 48 -23 77 -2 29 20 18
38 -12 19 -28 -19 -50 -12 -65 21 -6 14 -11 26 -11 28 0 2 26 4 57 5 31 1 59
3 61 6 2 2 -2 16 -10 31 -18 37 -48 54 -75 44z m45 -32 c21 -21 13 -28 -28
-28 -22 0 -40 4 -40 8 0 14 23 32 40 32 9 0 21 -5 28 -12z"/>
<path d="M1033 630 c-67 -40 -40 -160 36 -160 46 0 80 99 48 141 -25 33 -51
39 -84 19z m61 -32 c21 -30 20 -61 -2 -88 -40 -50 -96 21 -65 83 16 33 46 35
67 5z"/>
<path d="M256 625 c-29 -22 -33 -94 -6 -127 24 -31 55 -36 88 -12 29 20 18 38
-12 19 -27 -18 -52 -11 -67 16 -16 30 -2 39 56 39 50 0 54 2 50 21 -10 52 -67
75 -109 44z m72 -17 c21 -21 13 -28 -28 -28 -22 0 -40 4 -40 8 0 14 23 32 40
32 9 0 21 -5 28 -12z"/>
<path d="M402 628 c-7 -7 -12 -24 -12 -39 0 -23 6 -29 42 -41 23 -7 43 -19 46
-25 6 -19 -27 -28 -59 -16 -31 12 -47 2 -26 -15 50 -42 131 5 98 56 -4 7 -14
14 -22 16 -36 6 -59 19 -59 32 0 21 29 29 51 16 30 -19 44 -14 24 8 -20 22
-64 27 -83 8z"/>
<path d="M678 605 c-5 -44 7 -143 15 -125 3 8 8 39 11 69 4 52 16 71 44 71 29
0 45 -31 45 -86 0 -36 3 -54 11 -51 7 2 10 26 9 63 -2 73 -23 94 -88 92 -40
-2 -44 -4 -47 -33z"/>
<path d="M841 628 c0 -21 53 -146 63 -150 9 -3 15 6 36 57 7 17 16 38 21 47
11 22 12 58 1 58 -4 0 -16 -24 -26 -52 -11 -29 -22 -57 -26 -61 -4 -5 -17 19
-30 52 -20 55 -41 80 -39 49z"/>
<path d="M1210 631 c0 -6 12 -42 26 -81 34 -90 49 -89 81 4 26 78 27 86 14 86
-5 0 -17 -24 -26 -52 -10 -29 -21 -57 -25 -61 -4 -5 -17 19 -30 52 -20 54 -40
79 -40 52z"/>
<path d="M1387 623 c-36 -42 -23 -133 22 -148 26 -8 68 4 75 21 8 20 -10 26
-24 9 -7 -8 -18 -15 -26 -15 -19 0 -44 29 -44 50 0 16 8 19 51 18 58 0 63 3
54 31 -16 50 -76 69 -108 34z m71 -15 c21 -21 13 -28 -28 -28 -38 0 -40 2 -30
20 12 22 40 26 58 8z"/>
<path d="M1704 619 c-12 -14 -19 -36 -19 -64 0 -107 118 -116 131 -9 9 77 -65
125 -112 73z m79 -19 c36 -52 -20 -138 -62 -95 -19 18 -19 78 -2 99 18 22 47
20 64 -4z"/>
<path d="M1871 622 c-16 -13 -22 -29 -22 -67 -2 -75 0 -87 11 -80 6 3 10 32
10 64 0 49 4 61 22 73 13 9 18 17 11 21 -6 4 -20 -1 -32 -11z"/>
<path d="M2277 623 c-27 -31 -30 -84 -7 -120 22 -37 52 -43 88 -17 29 20 18
38 -12 19 -28 -19 -50 -12 -64 20 -14 31 -8 35 55 35 60 0 66 11 32 54 -24 31
-68 35 -92 9z m71 -15 c21 -21 13 -28 -28 -28 -22 0 -40 4 -40 8 0 14 23 32
40 32 9 0 21 -5 28 -12z"/>
</g>
</svg>
